<svg width="308" height="212" viewBox="0 0 308 212" fill="none" xmlns="http://www.w3.org/2000/svg">
<path d="M0.84875 46.256V36.784L5.52075 36.464V10.736L0.84875 10.416V0.943996L11.7288 1.456L22.6088 0.943996V10.416L17.9368 10.736V36.464L22.6088 36.784V46.256L11.7288 45.744L0.84875 46.256ZM28.2848 46V1.2H39.1648L54.7808 26.48V1.2H66.1728V46H55.2928L39.6768 20.72V46H28.2848ZM71.7848 46V1.2H82.6648L98.2808 26.48V1.2H109.673V46H98.7928L83.1768 20.72V46H71.7848ZM115.029 37.296V9.904L123.733 1.2H144.725L153.429 9.904V37.296L144.725 46H123.733L115.029 37.296ZM127.957 11.952V35.248H140.501V11.952H127.957ZM165.572 46L156.356 1.2H169.988L175.428 34.736H178.372L183.876 1.2H197.444L188.228 46H165.572ZM196.918 46L206.134 1.2H228.79L238.006 46H224.822L223.286 37.04H211.638L210.102 46H196.918ZM213.046 28.336H221.878L218.934 10.928H215.99L213.046 28.336ZM247.255 46V11.952H236.311V1.2H270.615V11.952H259.671V46H247.255ZM274.722 46V1.2H306.466V11.44H287.138V18.352H303.266V28.08H287.138V35.76H307.106V46H274.722ZM20.7788 120.296V92.904L29.4828 84.2H51.6268V95.464H33.7068V117.736H52.2668V129H29.4828L20.7788 120.296ZM56.4663 120.296V92.904L65.1703 84.2H86.1623L94.8663 92.904V120.296L86.1623 129H65.1703L56.4663 120.296ZM69.3943 94.952V118.248H81.9383V94.952H69.3943ZM100.222 129V84.2H115.006L122.366 101.544L129.726 84.2H144.51V129H132.35V100.072L124.798 116.968H119.934L112.382 100.072V129H100.222ZM162.576 109.672H173.584V93.928H162.576V109.672ZM186 92.904V110.696L177.296 119.4H162.576V129H150.16V84.2H177.296L186 92.904ZM190.411 129.256V119.784L195.083 119.464V93.736L190.411 93.416V83.944L201.291 84.456L212.171 83.944V93.416L207.499 93.736V119.464L212.171 119.784V129.256L201.291 128.744L190.411 129.256ZM217.847 129V84.2H230.263V118.76H239.159V111.08H249.975V129H217.847ZM254.472 129V84.2H286.216V94.44H266.888V101.352H283.016V111.08H266.888V118.76H286.856V129H254.472ZM22.4098 212V167.2H54.1538V177.44H34.8258V184.352H50.9538V194.08H34.8258V201.76H54.7938V212H22.4098ZM56.9748 212L66.4468 188.32L57.9348 167.2H71.2468L76.4308 183.328H79.2468L84.4308 167.2H97.7428L89.2308 188.32L98.7028 212H85.2628L79.6308 194.592H76.0468L70.4148 212H56.9748ZM101.785 212V167.2H133.529V177.44H114.201V184.352H130.329V194.08H114.201V201.76H134.169V212H101.785ZM138.654 203.296V175.904L147.358 167.2H169.502V178.464H151.582V200.736H170.142V212H147.358L138.654 203.296ZM174.597 203.296V167.2H187.013V200.736H198.149V167.2H210.565V203.296L201.861 212H183.301L174.597 203.296ZM225.63 212V177.952H214.686V167.2H248.99V177.952H238.046V212H225.63ZM253.097 212V167.2H284.841V177.44H265.513V184.352H281.641V194.08H265.513V201.76H285.481V212H253.097Z" fill="white"/>
</svg>
