<svg width="716" height="666" viewBox="0 0 716 666" fill="none" xmlns="http://www.w3.org/2000/svg">
<path d="M0.541992 106.6V86.95L13.442 86.2V20.8L0.541992 20.05V0.399992L26.042 1.59999L51.542 0.399992V20.05L38.642 20.8V86.2L51.542 86.95V106.6L26.042 105.4L0.541992 106.6ZM65.4451 106V0.999993H89.2951L129.645 67.75V0.999993H153.045V106H129.195L88.8451 39.25V106H65.4451ZM167.398 106V0.999993H191.248L231.598 67.75V0.999993H254.998V106H231.148L190.798 39.25V106H167.398ZM268.901 87.7V19.3L287.201 0.999993H339.101L357.401 19.3V87.7L339.101 106H287.201L268.901 87.7ZM295.001 22.9V84.1H331.301V22.9H295.001ZM388.269 106L365.169 0.999993H392.619L408.069 83.2H417.369L432.969 0.999993H460.269L437.169 106H388.269ZM459.358 106L482.458 0.999993H531.358L554.458 106H527.758L523.408 83.5H490.408L486.058 106H459.358ZM493.558 65.35H520.258L511.558 20.95H502.258L493.558 65.35ZM577.656 106V22.9H550.356V0.999993H630.156V22.9H602.856V106H577.656ZM640.396 106V0.999993H714.196V22H665.596V42.4H706.696V62.5H665.596V85H715.696V106H640.396ZM46.4648 367.7V299.3L64.7648 281H117.565V303.95H72.5648V363.05H119.065V386H64.7648L46.4648 367.7ZM129.814 367.7V299.3L148.114 281H200.014L218.314 299.3V367.7L200.014 386H148.114L129.814 367.7ZM155.914 302.9V364.1H192.214V302.9H155.914ZM232.218 386V281H262.518L283.518 325.7L304.518 281H334.818V386H310.068V313.1L288.918 356.6H278.118L256.968 313.1V386H232.218ZM374.459 343.4H406.559V301.1H374.459V343.4ZM431.759 299.3V345.2L413.459 363.5H374.459V386H349.259V281H413.459L431.759 299.3ZM442.705 386.6V366.95L455.605 366.2V300.8L442.705 300.05V280.4L468.205 281.6L493.705 280.4V300.05L480.805 300.8V366.2L493.705 366.95V386.6L468.205 385.4L442.705 386.6ZM507.608 386V281H532.808V365H561.008V344H583.208V386H507.608ZM594.473 386V281H668.273V302H619.673V322.4H660.773V342.5H619.673V365H669.773V386H594.473ZM50.7967 666V561H124.597V582H75.9967V602.4H117.097V622.5H75.9967V645H126.097V666H50.7967ZM131.808 666L155.208 610.5L134.058 561H161.058L175.758 600.6H184.458L199.158 561H226.158L205.008 610.5L228.408 666H201.108L185.508 623.4H174.708L159.108 666H131.808ZM236.832 666V561H310.632V582H262.032V602.4H303.132V622.5H262.032V645H312.132V666H236.832ZM323.394 647.7V579.3L341.694 561H394.494V583.95H349.494V643.05H395.994V666H341.694L323.394 647.7ZM407.193 647.7V561H432.393V643.2H465.093V561H490.293V647.7L471.993 666H425.493L407.193 647.7ZM527.852 666V582.9H500.552V561H580.352V582.9H553.052V666H527.852ZM590.592 666V561H664.392V582H615.792V602.4H656.892V622.5H615.792V645H665.892V666H590.592Z" fill="black"/>
</svg>
