<svg width="313" height="252" viewBox="0 0 313 252" fill="none" xmlns="http://www.w3.org/2000/svg">
<g filter="url(#filter0_d_1_13)">
<mask id="path-1-outside-1_1_13" maskUnits="userSpaceOnUse" x="167" y="26" width="131" height="217" fill="black">
<rect fill="white" x="167" y="26" width="131" height="217"/>
<path d="M168.341 242V27.8H216.941V204.5H296.441V242H168.341Z"/>
</mask>
<path d="M168.341 242V27.8H216.941V204.5H296.441V242H168.341Z" fill="#FFFEFE"/>
<path d="M168.341 242H167.341V243H168.341V242ZM168.341 27.8V26.8H167.341V27.8H168.341ZM216.941 27.8H217.941V26.8H216.941V27.8ZM216.941 204.5H215.941V205.5H216.941V204.5ZM296.441 204.5H297.441V203.5H296.441V204.5ZM296.441 242V243H297.441V242H296.441ZM169.341 242V27.8H167.341V242H169.341ZM168.341 28.8H216.941V26.8H168.341V28.8ZM215.941 27.8V204.5H217.941V27.8H215.941ZM216.941 205.5H296.441V203.5H216.941V205.5ZM295.441 204.5V242H297.441V204.5H295.441ZM296.441 241H168.341V243H296.441V241Z" fill="#FFFDFD" mask="url(#path-1-outside-1_1_13)"/>
</g>
<g filter="url(#filter1_d_1_13)">
<mask id="path-3-inside-2_1_13" fill="white">
<path d="M158.504 246L145.876 193.64H74.728L61.792 246H7.58398L77.808 25.164H141.872L212.404 246H158.504ZM120.62 103.396C119.388 99.084 118.156 94.5667 116.924 89.844C115.692 85.1213 114.46 80.1933 113.228 75.06C112.201 69.9267 111.175 64.6907 110.148 59.352C109.327 64.6907 108.3 70.0293 107.068 75.368C105.836 80.5013 104.604 85.4293 103.372 90.152C102.345 94.8747 101.216 99.2893 99.984 103.396L85.816 154.524H135.096L120.62 103.396Z"/>
</mask>
<path d="M158.504 246L145.876 193.64H74.728L61.792 246H7.58398L77.808 25.164H141.872L212.404 246H158.504ZM120.62 103.396C119.388 99.084 118.156 94.5667 116.924 89.844C115.692 85.1213 114.46 80.1933 113.228 75.06C112.201 69.9267 111.175 64.6907 110.148 59.352C109.327 64.6907 108.3 70.0293 107.068 75.368C105.836 80.5013 104.604 85.4293 103.372 90.152C102.345 94.8747 101.216 99.2893 99.984 103.396L85.816 154.524H135.096L120.62 103.396Z" fill="black"/>
<path d="M158.504 246L157.532 246.234L157.716 247H158.504V246ZM145.876 193.64L146.848 193.406L146.663 192.64H145.876V193.64ZM74.728 193.64V192.64H73.945L73.7572 193.4L74.728 193.64ZM61.792 246V247H62.575L62.7628 246.24L61.792 246ZM7.58398 246L6.63101 245.697L6.21665 247H7.58398V246ZM77.808 25.164V24.164H77.0766L76.855 24.861L77.808 25.164ZM141.872 25.164L142.825 24.8598L142.602 24.164H141.872V25.164ZM212.404 246V247H213.773L213.357 245.696L212.404 246ZM120.62 103.396L121.582 103.124L121.582 103.121L120.62 103.396ZM116.924 89.844L117.892 89.5916L116.924 89.844ZM113.228 75.06L112.247 75.2561L112.251 75.2748L112.256 75.2934L113.228 75.06ZM110.148 59.352L111.13 59.1631L109.16 59.1999L110.148 59.352ZM107.068 75.368L108.04 75.6014L108.042 75.5929L107.068 75.368ZM103.372 90.152L102.404 89.8996L102.399 89.9195L102.395 89.9396L103.372 90.152ZM99.984 103.396L99.0262 103.109L99.0231 103.119L99.0203 103.129L99.984 103.396ZM85.816 154.524L84.8523 154.257L84.5012 155.524H85.816V154.524ZM135.096 154.524V155.524H136.418L136.058 154.252L135.096 154.524ZM159.476 245.766L146.848 193.406L144.904 193.874L157.532 246.234L159.476 245.766ZM145.876 192.64H74.728V194.64H145.876V192.64ZM73.7572 193.4L60.8212 245.76L62.7628 246.24L75.6988 193.88L73.7572 193.4ZM61.792 245H7.58398V247H61.792V245ZM8.53696 246.303L78.761 25.467L76.855 24.861L6.63101 245.697L8.53696 246.303ZM77.808 26.164H141.872V24.164H77.808V26.164ZM140.919 25.4682L211.451 246.304L213.357 245.696L142.825 24.8598L140.919 25.4682ZM212.404 245H158.504V247H212.404V245ZM121.582 103.121C120.352 98.8173 119.122 94.3074 117.892 89.5916L115.956 90.0964C117.19 94.8259 118.424 99.3507 119.658 103.671L121.582 103.121ZM117.892 89.5916C116.661 84.8757 115.431 79.9541 114.2 74.8266L112.256 75.2934C113.489 80.4326 114.723 85.3669 115.956 90.0964L117.892 89.5916ZM114.209 74.8639C113.182 69.7331 112.156 64.4995 111.13 59.1631L109.166 59.5408C110.193 64.8818 111.22 70.1203 112.247 75.2561L114.209 74.8639ZM109.16 59.1999C108.342 64.5138 107.32 69.8282 106.094 75.1431L108.042 75.5929C109.28 70.2304 110.311 64.8675 111.136 59.5041L109.16 59.1999ZM106.096 75.1346C104.865 80.2621 103.635 85.1837 102.404 89.8996L104.34 90.4044C105.573 85.6749 106.807 80.7406 108.04 75.6014L106.096 75.1346ZM102.395 89.9396C101.373 94.6401 100.25 99.0296 99.0262 103.109L100.942 103.683C102.182 99.5491 103.318 95.1092 104.349 90.3644L102.395 89.9396ZM99.0203 103.129L84.8523 154.257L86.7797 154.791L100.948 103.663L99.0203 103.129ZM85.816 155.524H135.096V153.524H85.816V155.524ZM136.058 154.252L121.582 103.124L119.658 103.668L134.134 154.796L136.058 154.252Z" fill="black" mask="url(#path-3-inside-2_1_13)"/>
</g>
<defs>
<filter id="filter0_d_1_13" x="168.341" y="18.8" width="142.1" height="223.2" filterUnits="userSpaceOnUse" color-interpolation-filters="sRGB">
<feFlood flood-opacity="0" result="BackgroundImageFix"/>
<feColorMatrix in="SourceAlpha" type="matrix" values="0 0 0 0 0 0 0 0 0 0 0 0 0 0 0 0 0 0 127 0" result="hardAlpha"/>
<feOffset dx="10" dy="-5"/>
<feGaussianBlur stdDeviation="2"/>
<feComposite in2="hardAlpha" operator="out"/>
<feColorMatrix type="matrix" values="0 0 0 0 0 0 0 0 0 0 0 0 0 0 0 0 0 0 0.25 0"/>
<feBlend mode="normal" in2="BackgroundImageFix" result="effect1_dropShadow_1_13"/>
<feBlend mode="normal" in="SourceGraphic" in2="effect1_dropShadow_1_13" result="shape"/>
</filter>
<filter id="filter1_d_1_13" x="7.58398" y="23.164" width="218.82" height="228.836" filterUnits="userSpaceOnUse" color-interpolation-filters="sRGB">
<feFlood flood-opacity="0" result="BackgroundImageFix"/>
<feColorMatrix in="SourceAlpha" type="matrix" values="0 0 0 0 0 0 0 0 0 0 0 0 0 0 0 0 0 0 127 0" result="hardAlpha"/>
<feOffset dx="10" dy="2"/>
<feGaussianBlur stdDeviation="2"/>
<feComposite in2="hardAlpha" operator="out"/>
<feColorMatrix type="matrix" values="0 0 0 0 1 0 0 0 0 1 0 0 0 0 1 0 0 0 0.25 0"/>
<feBlend mode="normal" in2="BackgroundImageFix" result="effect1_dropShadow_1_13"/>
<feBlend mode="normal" in="SourceGraphic" in2="effect1_dropShadow_1_13" result="shape"/>
</filter>
</defs>
</svg>
