<svg width="65" height="570" viewBox="0 0 65 570" fill="none" xmlns="http://www.w3.org/2000/svg">
<path d="M4 59.2V10.8L14.8 -4.76837e-06H50.6V12.9H18.6V57.1H51.6V70H14.8L4 59.2ZM0.4 170L16.7 100H46.7L63 170H48.1L44.6 154H18.8L15.3 170H0.4ZM20.9 143.3H42.5L35.5 111.5H27.9L20.9 143.3ZM18.4 237.2H45.4V211.6H18.4V237.2ZM59.6 210.8V237.7L52 245.3L64.1 270H48.4L38.7 248.8H18.4V270H4.2V200H48.8L59.6 210.8ZM4.2 370V300H53V312H18.4V328.4H48V340H18.4V358H54V370H4.2ZM4.2 470V400H53V412H18.4V428.4H48V440H18.4V458H54V470H4.2ZM18.4 537.2H45.4V511.6H18.4V537.2ZM59.6 510.8V537.7L52 545.3L64.1 570H48.4L38.7 548.8H18.4V570H4.2V500H48.8L59.6 510.8Z" fill="#3176AF"/>
</svg>
