<svg width="61" height="470" viewBox="0 0 61 470" fill="none" xmlns="http://www.w3.org/2000/svg">
<path d="M5.31445 59.2V10.8L16.1145 -4.76837e-06H51.9145V12.9H19.9145V57.1H52.9145V70H16.1145L5.31445 59.2ZM4.19609 170V100H52.9961V112H18.3961V128.4H47.9961V140H18.3961V158H53.9961V170H4.19609ZM14.6852 237.2H41.6852V211.6H14.6852V237.2ZM55.8852 210.8V237.7L48.2852 245.3L60.3852 270H44.6852L34.9852 248.8H14.6852V270H0.485156V200H45.0852L55.8852 210.8ZM20.882 370V312.4H1.58203V300H54.382V312.4H35.082V370H20.882ZM2.01758 470V457.6H40.8176V441.4L1.01758 438.1V410.4L11.4176 400H54.0176V412.4H15.2176V427.6L55.0176 430.9V459.6L44.6176 470H2.01758Z" fill="#3176AF"/>
</svg>
