<svg width="291" height="70" viewBox="0 0 291 70" fill="none" xmlns="http://www.w3.org/2000/svg">
<path d="M0.695313 59.2V10.8L11.4953 -4.76837e-06H47.2953V12.9H15.2953V57.1H48.2953V70H11.4953L0.695313 59.2ZM56.2664 70V-4.76837e-06H105.066V12H70.4664V28.4H100.066V40H70.4664V58H106.066V70H56.2664ZM128.474 37.2H155.474V11.6H128.474V37.2ZM169.674 10.8V37.7L162.074 45.3L174.174 70H158.474L148.774 48.8H128.474V70H114.274V-4.76837e-06H158.874L169.674 10.8ZM195.804 70V12.4H176.504V-4.76837e-06H229.304V12.4H210.004V70H195.804ZM237.34 70V57.6H276.14V41.4L236.34 38.1V10.4L246.74 -4.76837e-06H289.34V12.4H250.54V27.6L290.34 30.9V59.6L279.94 70H237.34Z" fill="#3176AF"/>
</svg>
