<svg width="585" height="72" viewBox="0 0 585 72" fill="none" xmlns="http://www.w3.org/2000/svg">
<path d="M0.2 71V0.999995H49V13H14.4V29.4H44V41H14.4V59H50V71H0.2ZM54.2078 71L70.6078 34L55.7078 0.999995H71.0078L82.4078 28.6H89.6078L101.008 0.999995H116.308L101.408 34L117.808 71H102.408L90.4078 41.4H81.6078L69.6078 71H54.2078ZM138.423 44.4H164.023V12.6H138.423V44.4ZM178.223 11.8V45.2L167.423 56H138.423V71H124.223V0.999995H167.423L178.223 11.8ZM186.626 71V0.999995H235.426V13H200.826V29.4H230.426V41H200.826V59H236.426V71H186.626ZM258.834 38.2H285.834V12.6H258.834V38.2ZM300.034 11.8V38.7L292.434 46.3L304.534 71H288.834L279.134 49.8H258.834V71H244.634V0.999995H289.234L300.034 11.8ZM309.363 71.4V60L319.263 59.5V12.5L309.363 12V0.599994L326.363 1.4L343.363 0.599994V12L333.463 12.5V59.5L343.363 60V71.4L326.363 70.6L309.363 71.4ZM353.032 71V0.999995H401.832V13H367.232V29.4H396.832V41H367.232V59H402.832V71H353.032ZM411.04 71V0.999995H425.94L455.24 50.5V0.999995H468.64V71H453.74L424.44 21.5V71H411.04ZM478.809 60.2V11.8L489.609 0.999995H525.409V13.9H493.409V58.1H526.409V71H489.609L478.809 60.2ZM534.38 71V0.999995H583.18V13H548.58V29.4H578.18V41H548.58V59H584.18V71H534.38Z" fill="#3176AF"/>
</svg>
